<mxfile host="65bd71144e">
    <diagram id="YJa1YVeCBQMnrFL9bhSD" name="第 1 页">
        <mxGraphModel dx="774" dy="445" grid="0" gridSize="10" guides="0" tooltips="1" connect="1" arrows="1" fold="1" page="1" pageScale="1" pageWidth="2339" pageHeight="3300" background="#FFFFFF" math="0" shadow="0">
            <root>
                <mxCell id="0"/>
                <mxCell id="1" parent="0"/>
                <mxCell id="9" value="" style="rounded=0;whiteSpace=wrap;html=1;fontSize=16;fillColor=none;strokeWidth=3;dashed=1;strokeColor=#9C838C;" vertex="1" parent="1">
                    <mxGeometry x="110" y="180" width="360" height="280" as="geometry"/>
                </mxCell>
                <mxCell id="2" value="&lt;font style=&quot;font-size: 16px;&quot;&gt;MemTable&lt;/font&gt;" style="rounded=1;whiteSpace=wrap;html=1;fillColor=#C3BAB1;" vertex="1" parent="1">
                    <mxGeometry x="130" y="90" width="120" height="60" as="geometry"/>
                </mxCell>
                <mxCell id="3" value="Immutable &lt;br&gt;MemTable" style="rounded=1;whiteSpace=wrap;html=1;fillColor=#DAD1BE;" vertex="1" parent="1">
                    <mxGeometry x="320" y="90" width="120" height="60" as="geometry"/>
                </mxCell>
                <mxCell id="4" value="Level 0" style="rounded=1;whiteSpace=wrap;html=1;fontSize=16;fillColor=#CEAEB9;" vertex="1" parent="1">
                    <mxGeometry x="130" y="200" width="320" height="60" as="geometry"/>
                </mxCell>
                <mxCell id="5" value="Level 1" style="rounded=1;whiteSpace=wrap;html=1;fontSize=16;fillColor=#CEABC5;" vertex="1" parent="1">
                    <mxGeometry x="130" y="290" width="320" height="60" as="geometry"/>
                </mxCell>
                <mxCell id="6" value="Level 2" style="rounded=1;whiteSpace=wrap;html=1;fontSize=16;fillColor=#CEABC5;" vertex="1" parent="1">
                    <mxGeometry x="130" y="380" width="320" height="60" as="geometry"/>
                </mxCell>
                <mxCell id="7" value="Manifest" style="rounded=1;whiteSpace=wrap;html=1;fontSize=16;fillColor=#B4A29E;" vertex="1" parent="1">
                    <mxGeometry x="530" y="330" width="100" height="60" as="geometry"/>
                </mxCell>
                <mxCell id="8" value="Log" style="rounded=1;whiteSpace=wrap;html=1;fontSize=16;fillColor=#78677A;" vertex="1" parent="1">
                    <mxGeometry x="130" y="490" width="320" height="60" as="geometry"/>
                </mxCell>
                <mxCell id="10" value="" style="endArrow=classic;html=1;fontSize=16;strokeWidth=3;strokeColor=#02696E;entryX=0;entryY=0.5;entryDx=0;entryDy=0;" edge="1" parent="1" target="2">
                    <mxGeometry width="50" height="50" relative="1" as="geometry">
                        <mxPoint x="20" y="120" as="sourcePoint"/>
                        <mxPoint x="90" y="110" as="targetPoint"/>
                    </mxGeometry>
                </mxCell>
                <mxCell id="11" value="" style="endArrow=classic;html=1;fontSize=16;strokeWidth=3;strokeColor=#02696E;entryX=0;entryY=0.5;entryDx=0;entryDy=0;exitX=1;exitY=0.5;exitDx=0;exitDy=0;" edge="1" parent="1" source="2" target="3">
                    <mxGeometry width="50" height="50" relative="1" as="geometry">
                        <mxPoint x="50" y="130" as="sourcePoint"/>
                        <mxPoint x="140" y="130" as="targetPoint"/>
                        <Array as="points"/>
                    </mxGeometry>
                </mxCell>
                <mxCell id="12" value="" style="endArrow=classic;html=1;fontSize=16;strokeWidth=3;strokeColor=#02696E;entryX=0.5;entryY=0;entryDx=0;entryDy=0;exitX=0.5;exitY=1;exitDx=0;exitDy=0;edgeStyle=elbowEdgeStyle;elbow=vertical;rounded=0;" edge="1" parent="1" source="3" target="4">
                    <mxGeometry width="50" height="50" relative="1" as="geometry">
                        <mxPoint x="260" y="140" as="sourcePoint"/>
                        <mxPoint x="330" y="140" as="targetPoint"/>
                        <Array as="points">
                            <mxPoint x="340" y="170"/>
                        </Array>
                    </mxGeometry>
                </mxCell>
                <mxCell id="13" value="" style="endArrow=classic;html=1;fontSize=16;strokeWidth=3;strokeColor=#02696E;entryX=0.5;entryY=0;entryDx=0;entryDy=0;exitX=0.5;exitY=1;exitDx=0;exitDy=0;" edge="1" parent="1" source="4" target="5">
                    <mxGeometry width="50" height="50" relative="1" as="geometry">
                        <mxPoint x="260" y="130" as="sourcePoint"/>
                        <mxPoint x="330" y="130" as="targetPoint"/>
                        <Array as="points"/>
                    </mxGeometry>
                </mxCell>
                <mxCell id="14" value="" style="endArrow=classic;html=1;fontSize=16;strokeWidth=3;strokeColor=#02696E;entryX=0.5;entryY=0;entryDx=0;entryDy=0;exitX=0.5;exitY=1;exitDx=0;exitDy=0;" edge="1" parent="1" source="5" target="6">
                    <mxGeometry width="50" height="50" relative="1" as="geometry">
                        <mxPoint x="300" y="270" as="sourcePoint"/>
                        <mxPoint x="300" y="300" as="targetPoint"/>
                        <Array as="points"/>
                    </mxGeometry>
                </mxCell>
                <mxCell id="15" value="" style="endArrow=classic;html=1;fontSize=16;strokeWidth=3;strokeColor=#02696E;entryX=0;entryY=0.5;entryDx=0;entryDy=0;edgeStyle=orthogonalEdgeStyle;rounded=0;" edge="1" parent="1" target="8">
                    <mxGeometry width="50" height="50" relative="1" as="geometry">
                        <mxPoint x="70" y="120" as="sourcePoint"/>
                        <mxPoint x="70" y="360" as="targetPoint"/>
                        <Array as="points">
                            <mxPoint x="70" y="520"/>
                        </Array>
                    </mxGeometry>
                </mxCell>
                <mxCell id="16" value="&lt;font color=&quot;#1a1a1a&quot;&gt;SSTable&lt;/font&gt;" style="text;html=1;strokeColor=none;fillColor=none;align=center;verticalAlign=middle;whiteSpace=wrap;rounded=0;dashed=1;strokeWidth=3;fontSize=16;" vertex="1" parent="1">
                    <mxGeometry x="480" y="150" width="60" height="30" as="geometry"/>
                </mxCell>
                <mxCell id="18" value="" style="endArrow=classic;html=1;rounded=0;strokeColor=#8F7A63;strokeWidth=3;fontSize=16;fontColor=#1A1A1A;elbow=vertical;entryX=1;entryY=0.5;entryDx=0;entryDy=0;exitX=0;exitY=0.5;exitDx=0;exitDy=0;" edge="1" parent="1" source="7" target="9">
                    <mxGeometry width="50" height="50" relative="1" as="geometry">
                        <mxPoint x="550" y="310" as="sourcePoint"/>
                        <mxPoint x="600" y="260" as="targetPoint"/>
                    </mxGeometry>
                </mxCell>
            </root>
        </mxGraphModel>
    </diagram>
</mxfile>